<svg width="60" height="60" viewBox="0 0 60 60" fill="none" xmlns="http://www.w3.org/2000/svg">
<rect x="6" y="13" width="48" height="45" rx="4" fill="black"/>
<path d="M19 9.5H41C43.4853 9.5 45.5 11.5147 45.5 14V58C45.5 58.8284 44.8284 59.5 44 59.5H16C15.1716 59.5 14.5 58.8284 14.5 58V14C14.5 11.5147 16.5147 9.5 19 9.5Z" fill="#E0191C" stroke="black"/>
<path d="M38.5 1C39.6046 1 40.5 1.89543 40.5 3V11.0273C40.5 11.4375 40.3738 11.8378 40.1387 12.1738L37.1807 16.3994C37.0631 16.5674 37 16.7676 37 16.9727V30C37 31.1046 36.1046 32 35 32H25C23.8954 32 23 31.1046 23 30V16.9727C23 16.7676 22.9369 16.5674 22.8193 16.3994L19.8613 12.1738C19.6262 11.8378 19.5 11.4375 19.5 11.0273V3C19.5 1.89543 20.3954 1 21.5 1H38.5Z" fill="#CC0D10" stroke="black"/>
<path d="M23.1426 38C23.3398 38 23.5 38.1602 23.5 38.3574V53.5H18.5V42.6426C18.5002 40.0786 20.5786 38.0002 23.1426 38Z" fill="#FF3A3A" stroke="black"/>
<path d="M32.5 38V53.5H27.5V38H32.5Z" fill="#FF3A3A" stroke="black"/>
<path d="M36.8574 38C39.4214 38.0002 41.4998 40.0786 41.5 42.6426V53.5H36.5V38.3574C36.5 38.1602 36.6602 38 36.8574 38Z" fill="#FF3A3A" stroke="black"/>
</svg>
